<svg width="200" height="200" viewBox="0 0 200 200" fill="none" xmlns="http://www.w3.org/2000/svg">
  <!-- Cup -->
  <path d="M50 60h100v100H50z" fill="#8B4513"/>
  <path d="M40 160h120v10H40z" fill="#8B4513"/>
  <!-- Coffee -->
  <path d="M60 80h80v70H60z" fill="#C3A17D"/>
  <!-- Whipped Cream -->
  <path d="M60 70c0 0 20 -20 40 0s40 0 40 0" fill="#FFF"/>
  <!-- Pumpkin Spice Drizzle -->
  <path d="M70 85c20 0 20 10 40 10s20 -10 40 -10" stroke="#FF6D00" stroke-width="4"/>
  <!-- Cinnamon Sprinkle -->
  <path d="M75 75l50 5M75 85l50 -5" stroke="#D2691E" stroke-width="2"/>
  <!-- Steam -->
  <path d="M80 40c0 0 0 -10 10 -10s10 10 10 10M100 30c0 0 0 -10 10 -10s10 10 10 10" stroke="#666" fill="none" stroke-width="3"/>
</svg>
